<?xml version="1.0" encoding="UTF-8"?>
<svg width="180" height="180" version="1.1" viewBox="0 0 180 180" xml:space="preserve" xmlns="http://www.w3.org/2000/svg" xmlns:xlink="http://www.w3.org/1999/xlink"><defs><clipPath id="clipPath4534"><path d="m0 600h800v-600h-800z"/></clipPath><linearGradient id="linearGradient4558" x2="1" gradientTransform="matrix(86.717,-72.764,-72.764,-86.717,355.35,351.44)" gradientUnits="userSpaceOnUse"><stop stop-color="#ff9696" offset="0"/><stop stop-color="#e10000" offset=".64243"/><stop stop-color="#8f0000" offset="1"/></linearGradient><clipPath id="clipPath4568"><path d="m0 600h800v-600h-800z"/></clipPath><linearGradient id="linearGradient892" x1="129.69" x2="0" y1="131.22" gradientUnits="userSpaceOnUse"><stop offset="0"/><stop stop-color="#aaa" offset="1"/></linearGradient></defs><rect width="177.92" height="180" fill="url(#linearGradient892)" fill-rule="evenodd" stroke-width=".99367"/><g transform="matrix(1.3321 0 0 -1.3321 -443.59 507.11)"><g clip-path="url(#clipPath4534)"><g transform="translate(365.79,331.03)"><path d="m0 0c-8.301-6.448-23.903-5.599-25.286-18.964 2.679-10.436 16.053-4.654 25.286-4.215 1.675-20.8 6.555-38.398 12.643-54.785h42.145c7.511 15.665 8.757 37.595 14.747 54.785 8.291-1.721 23.324-5.706 23.178 6.322-3.209 11.54-19.563 9.935-25.284 18.965 9.341 13.596 1.931 39.271-14.75 40.035-9.069-11.019 16.796-21.659 2.109-31.608-12.747 8.929-30.735 6.23-44.252 0-9.935 13.306 12.711 19.739 4.214 31.608-17.795-1.173-23.394-27.319-14.75-42.143" fill="#fff" fill-rule="evenodd"/></g></g><path d="m420.58 341.57c-12.746 8.929-30.735 6.23-44.251 0-9.935 13.306 12.711 19.739 4.214 31.607-17.796-1.173-23.395-27.318-14.75-42.142-8.302-6.449-23.903-5.599-25.286-18.964 2.679-10.437 16.053-4.654 25.286-4.216 1.675-20.8 6.554-38.396 12.643-54.785h42.144c7.512 15.666 8.758 37.596 14.748 54.785 8.29-1.721 23.323-5.705 23.178 6.323-3.209 11.539-19.564 9.935-25.284 18.964 9.341 13.596 1.93 39.272-14.75 40.035-9.07-11.019 16.795-21.658 2.108-31.607" fill="url(#linearGradient4558)"/><g clip-path="url(#clipPath4568)"><g transform="translate(383.22,262.33)"><path d="m0 0c0-1.743 1.417-3.159 3.16-3.159s3.16 1.416 3.16 3.159c0 1.744-1.417 3.161-3.16 3.161s-3.16-1.417-3.16-3.161" fill="#000400" fill-rule="evenodd"/></g><g transform="translate(410.61,262.33)"><path d="m0 0c0-1.679 1.365-3.041 3.044-3.041 1.681 0 3.046 1.362 3.046 3.041 0 1.682-1.365 3.046-3.046 3.046-1.679 0-3.044-1.364-3.044-3.046" fill="#000400" fill-rule="evenodd"/></g><path d="m422.2 323.14h-46.586v3.803h46.586z" fill="#000400" fill-rule="evenodd"/></g></g></svg>
