<?xml version="1.0" encoding="UTF-8"?>
<!-- Created with Inkscape (http://www.inkscape.org/) -->
<svg id="SVGRoot" width="32" height="32" version="1.1" viewBox="0 0 32 32" xmlns="http://www.w3.org/2000/svg">
 <defs>
  <clipPath id="clipPath328">
   <path d="m208.94 524.38 11.498-55.174-25.797-14.851-42.904 37.131c-15.947-12.401-30.296-26.744-42.693-42.695l37.553-42.065-14.893-25.796-55.676 10.682c-7.495-18.432-13.061-37.994-15.808-58.365l53.146-17.615v-29.788l-53.039-18.507c2.811-20.372 8.301-39.929 15.862-58.348l54.931 11.415 14.931-25.798-36.716-42.465c12.446-15.947 26.861-30.284 42.862-42.664l41.551 37.087 25.8-14.894-10.534-54.91c18.421-7.487 37.971-12.783 58.329-15.527l17.507 53.09h29.788l18.407-53.016c20.354 2.791 39.898 8.123 58.308 15.654l-11.276 54.192 25.798 14.897 42.045-36.366c15.998 12.415 30.393 26.792 42.826 42.776l-36.828 41.258 14.894 25.796 54.723-10.495c7.569 18.444 12.311 38.032 15.116 58.434l-53.284 17.364v29.788l53.419 18.329c-2.724 20.407-7.692 40.004-15.178 58.469l-54.435-11.36-14.818 25.798 36.783 42.481c-12.37 16-26.677 30.408-42.612 42.858l-41.771-37.296-25.792 14.894 10.646 55.489c-18.457 7.576-38.055 12.591-58.472 15.398l-17.473-53.341h-29.788l-18.43 53.443c-20.422-2.744-40.033-7.871-58.506-15.387m-5.569-223.88c0 51.498 43.039 93.245 96.132 93.245s96.132-41.747 96.132-93.245c0-51.497-43.039-93.244-96.132-93.244s-96.132 41.747-96.132 93.244"/>
  </clipPath>
 </defs>
 <g transform="matrix(.054329 0 0 -.054333 -.27153 32.327)" fill="none" stroke="currentColor" stroke-width="36.165">
  <g clip-path="url(#clipPath328)" fill="none" stroke-width="36.165">
     <path d="m208.94 524.38 11.498-55.174-25.797-14.851-42.904 37.131c-15.947-12.401-30.296-26.744-42.693-42.695l37.553-42.065-14.893-25.796-55.676 10.682c-7.495-18.432-13.061-37.994-15.808-58.365l53.146-17.615v-29.788l-53.039-18.507c2.811-20.372 8.301-39.929 15.862-58.348l54.931 11.415 14.931-25.798-36.716-42.465c12.446-15.947 26.861-30.284 42.862-42.664l41.551 37.087 25.8-14.894-10.534-54.91c18.421-7.487 37.971-12.783 58.329-15.527l17.507 53.09h29.788l18.407-53.016c20.354 2.791 39.898 8.123 58.308 15.654l-11.276 54.192 25.798 14.897 42.045-36.366c15.998 12.415 30.393 26.792 42.826 42.776l-36.828 41.258 14.894 25.796 54.723-10.495c7.569 18.444 12.311 38.032 15.116 58.434l-53.284 17.364v29.788l53.419 18.329c-2.724 20.407-7.692 40.004-15.178 58.469l-54.435-11.36-14.818 25.798 36.783 42.481c-12.37 16-26.677 30.408-42.612 42.858l-41.771-37.296-25.792 14.894 10.646 55.489c-18.457 7.576-38.055 12.591-58.472 15.398l-17.473-53.341h-29.788l-18.43 53.443c-20.422-2.744-40.033-7.871-58.506-15.387m-5.569-223.88c0 51.498 43.039 93.245 96.132 93.245s96.132-41.747 96.132-93.245c0-51.497-43.039-93.244-96.132-93.244s-96.132 41.747-96.132 93.244" fill="none" stroke-width="36.165"/>
  </g>
 </g>
</svg>
