<?xml version="1.0" encoding="UTF-8"?>
<svg width="112mm" height="112mm" version="1.1" viewBox="0 0 112 112" xmlns="http://www.w3.org/2000/svg">
 <g transform="translate(-30.679 5.9036)" stroke-width="6" stroke="currentColor">
  <path d="m124.31 20.575s-5.1994-5.0609-12.429 0.86758c0 0-5.5428 5.5195-7.2298 5.9284-16.354-2.0631-41.963-1.4514-46.904 0.22203-4.192 2.0449-10.137 6.3229-10.374 20.863 0.61383 12.962 1.8441 17.858 10.982 22.269 0 0 0.25281 13.833 2.2288 16.226 2.8196 1.2291 11.106 1.6081 13.311-0.05475 1.5544-2.2051 2.5925-12.987 2.5925-12.987s1.8827 2.6446 9.2368 2.5997c6.8964-0.04212 8.3552-2.1629 8.3552-2.1629s0.74764 10.916 2.1575 13.157c2.2412 1.3737 11.66 1.7651 13.817 0.07443 1.6267-2.3497 2.4291-15.012 2.4291-15.012s3.5502 0.55562 8.9621-4.4885c5.4632-5.0919 6.5853-9.5488 6.5853-9.5488l6.914-0.07744-0.0496-14.303-7.5977 0.05263s-2.6252-4.7708-4.9329-8.1892c-2.4082-3.5672-7.6978-6.9907-7.6978-6.9907s2.9642-1.2692 5.0754-4.2211c3.6857-1.9503 4.5684-4.2239 4.5684-4.2239z" fill="none" stroke-linejoin="round" />
 </g>
 <g fill="none" stroke-linecap="round" stroke-linejoin="round" stroke-width="6" stroke="currentColor">
  <path d="m38.409 25.409s2.7249-12.229 14.689-12.124c11.678 0.10278 14.061 12.124 14.061 12.124" />
  <path d="m16.576 52.272s-13.081 1.9479-13.694-7.7667c-0.57316-9.0822 8.9655-9.2065 8.9655-9.2065" />
 </g>
</svg>
