<?xml version="1.0" encoding="UTF-8"?>
<!-- Created with Inkscape (http://www.inkscape.org/) -->
<svg id="SVGRoot" width="32" height="32" version="1.1" viewBox="0 0 32 32" xmlns="http://www.w3.org/2000/svg">
 <path d="m27.969 11.542c0.15959 0.43797 0.02492 0.92627-0.31918 1.2384l-2.1595 1.9834c0.05485 0.41783 0.08478 0.84573 0.08478 1.2787 0 0.43294-0.02992 0.86083-0.08478 1.2787l2.1595 1.9834c0.34412 0.31211 0.47878 0.80042 0.31918 1.2384-0.21944 0.59906-0.48376 1.1729-0.78798 1.7267l-0.2344 0.40776c-0.32916 0.55375-0.69822 1.0773-1.1022 1.5706-0.29424 0.36245-0.783 0.48327-1.2219 0.34232l-2.7779-0.89103c-0.66829 0.51851-1.4064 0.95144-2.1944 1.2787l-0.6234 2.8745c-0.09974 0.4581-0.44885 0.82056-0.90768 0.89607-0.68824 0.11578-1.3964 0.1762-2.1196 0.1762-0.72315 0-1.4313-0.06041-2.1196-0.1762-0.45882-0.07551-0.80793-0.43797-0.90768-0.89607l-0.6234-2.8745c-0.78798-0.32721-1.5261-0.76014-2.1944-1.2787l-2.7729 0.89607c-0.43887 0.14095-0.92762 0.015104-1.2219-0.34232-0.40397-0.49334-0.77302-1.0169-1.1022-1.5706l-0.2344-0.40776c-0.30422-0.55375-0.56855-1.1276-0.78798-1.7267-0.15959-0.43797-0.024918-0.92627 0.31918-1.2384l2.1595-1.9834c-0.054846-0.42286-0.08478-0.85076-0.08478-1.2837 0-0.43293 0.029928-0.86083 0.08478-1.2787l-2.1595-1.9834c-0.34412-0.31212-0.47878-0.80042-0.31918-1.2384 0.21943-0.59905 0.48376-1.1729 0.78798-1.7267l0.2344-0.40776c0.32916-0.55375 0.69821-1.0773 1.1022-1.5706 0.29425-0.36246 0.783-0.48327 1.2219-0.34232l2.7779 0.89103c0.66829-0.51851 1.4064-0.95144 2.1944-1.2787l0.6234-2.8745c0.09974-0.4581 0.44885-0.82055 0.90768-0.89606 0.68824-0.12082 1.3964-0.18123 2.1196-0.18123s1.4313 0.060417 2.1196 0.1762c0.45883 0.075509 0.80793 0.43797 0.90768 0.89607l0.6234 2.8745c0.78799 0.32721 1.5261 0.76014 2.1944 1.2787l2.7779-0.89103c0.43888-0.14096 0.92762-0.015104 1.2219 0.34232 0.40396 0.49334 0.77302 1.0169 1.1022 1.5706l0.2344 0.40776c0.30422 0.55375 0.56855 1.1276 0.78798 1.7267zm-11.964 8.5278a3.9898 4.0273 0 1 0 0-8.0545 3.9898 4.0273 0 1 0 0 8.0545z" fill="none" stroke="currentColor" stroke-width="1.5"/>
</svg>
