<?xml version="1.0" encoding="UTF-8"?>
<!-- Created with Inkscape (http://www.inkscape.org/) -->
<svg id="SVGRoot" width="32" height="32" version="1.1" viewBox="0 0 32 32" xmlns="http://www.w3.org/2000/svg">
 <defs>
  <clipPath id="clipPath2389">
   <rect x="9" y="15" width="4" height="6" ry=".62977" d="m 9.629766,14.999999 h 2.740466 c 0.348891,0 0.629767,0.280876 0.629767,0.629767 v 4.740466 c 0,0.348891 -0.280876,0.629767 -0.629767,0.629767 H 9.629766 c -0.3488909,0 -0.629767,-0.280876 -0.629767,-0.629767 v -4.740466 c 0,-0.348891 0.2808761,-0.629767 0.629767,-0.629767 z" display="none" fill="#fbffff"/>
   <path class="powerclip" d="m5.1393-2h28.847v35.565h-28.847zm4.4905 17c-0.34889 0-0.62977 0.28088-0.62977 0.62977v4.7405c0 0.34889 0.28088 0.62977 0.62977 0.62977h2.7405c0.34889 0 0.62977-0.28088 0.62977-0.62977v-4.7405c0-0.34889-0.28088-0.62977-0.62977-0.62977z" fill="#fbffff"/>
  </clipPath>
 </defs>
 <g fill="none" stroke="currentColor" stroke-linecap="round" stroke-linejoin="round" stroke-width="1.965">
  <path d="m21.5 4.0079v7.3141h6.504m-16.043-7.3395h9.5385c0.46519 0 6.504 6.8743 6.504 7.3395l-5.8e-5 15.42c-2e-6 0.46519-0.3745 0.83969-0.83969 0.83969h-15.203c-0.46519 0-0.83969-0.3745-0.83969-0.83969v-21.92c0-0.46519 0.3745-0.83969 0.83969-0.83969z" clip-path="url(#clipPath2389)"/>
  <path d="m17.559 22.191 4.3425-4.1912-4.2551-4.2799m-13.647 4.2802h16.049"/>
 </g>
</svg>
