<?xml version="1.0" encoding="UTF-8" standalone="no"?>
<!-- Created with Inkscape (http://www.inkscape.org/) -->

<svg
   width="32"
   height="32"
   viewBox="0 0 31.999997 31.999999"
   version="1.1"
   id="SVGRoot"
   sodipodi:docname="Icon.svg"
   inkscape:version="1.2.2 (732a01da63, 2022-12-09)"
   xmlns:inkscape="http://www.inkscape.org/namespaces/inkscape"
   xmlns:sodipodi="http://sodipodi.sourceforge.net/DTD/sodipodi-0.dtd"
   xmlns="http://www.w3.org/2000/svg"
   xmlns:svg="http://www.w3.org/2000/svg">
  <sodipodi:namedview
     id="namedview2407"
     pagecolor="#ffffff"
     bordercolor="#000000"
     borderopacity="0.25"
     inkscape:showpageshadow="2"
     inkscape:pageopacity="0.0"
     inkscape:pagecheckerboard="0"
     inkscape:deskcolor="#d1d1d1"
     inkscape:document-units="px"
     showgrid="true"
     inkscape:zoom="2"
     inkscape:cx="-103.25"
     inkscape:cy="-98.5"
     inkscape:window-width="3840"
     inkscape:window-height="2071"
     inkscape:window-x="-9"
     inkscape:window-y="-9"
     inkscape:window-maximized="1"
     inkscape:current-layer="layer1"
     guidecolor="#ff863a"
     guideopacity="0.6"
     showguides="true">
    <inkscape:grid
       type="xygrid"
       id="grid2530"
       originx="0"
       originy="0"
       empcolor="#004fe5"
       empopacity="0.30196078"
       spacingx="0.99999994"
       spacingy="0.99999994"
       dotted="false"
       empspacing="8" />
    <sodipodi:guide
       position="29.820311,29.011717"
       orientation="0,-1"
       id="guide2690"
       inkscape:locked="false" />
    <sodipodi:guide
       position="-139.22195,-68.966652"
       orientation="1,0"
       id="guide3758"
       inkscape:locked="false" />
    <sodipodi:guide
       position="-3.6547467,3.0011196"
       orientation="0,-1"
       id="guide3760"
       inkscape:locked="false" />
    <sodipodi:guide
       position="2.9960936,27.898436"
       orientation="1,0"
       id="guide3762"
       inkscape:locked="false" />
    <sodipodi:guide
       position="28.999998,25.027342"
       orientation="1,0"
       id="guide3764"
       inkscape:locked="false" />
  </sodipodi:namedview>
  <defs
     id="defs2402">
    <clipPath
       clipPathUnits="userSpaceOnUse"
       id="clipPath328">
      <path
         d="m 208.937,524.38 11.498,-55.174 -25.797,-14.851 -42.904,37.131 c -15.947,-12.401 -30.296,-26.744 -42.693,-42.695 v 0 L 146.594,406.726 131.701,380.93 76.025,391.612 C 68.53,373.18 62.964,353.618 60.217,333.247 v 0 l 53.146,-17.615 V 285.844 L 60.324,267.337 c 2.811,-20.372 8.301,-39.929 15.862,-58.348 v 0 l 54.931,11.415 14.931,-25.798 -36.716,-42.465 c 12.446,-15.947 26.861,-30.284 42.862,-42.664 v 0 l 41.551,37.087 25.8,-14.894 -10.534,-54.91 c 18.421,-7.487 37.971,-12.783 58.329,-15.527 v 0 l 17.507,53.09 h 29.788 l 18.407,-53.016 c 20.354,2.791 39.898,8.123 58.308,15.654 v 0 l -11.276,54.192 25.798,14.897 42.045,-36.366 c 15.998,12.415 30.393,26.792 42.826,42.776 v 0 l -36.828,41.258 14.894,25.796 54.723,-10.495 c 7.569,18.444 12.311,38.032 15.116,58.434 v 0 l -53.284,17.364 v 29.788 l 53.419,18.329 c -2.724,20.407 -7.692,40.004 -15.178,58.469 v 0 l -54.435,-11.36 -14.818,25.798 36.783,42.481 c -12.37,16 -26.677,30.408 -42.612,42.858 v 0 l -41.771,-37.296 -25.792,14.894 10.646,55.489 c -18.457,7.576 -38.055,12.591 -58.472,15.398 v 0 l -17.473,-53.341 h -29.788 l -18.43,53.443 C 247.021,537.023 227.41,531.896 208.937,524.38 M 203.368,300.5 c 0,51.498 43.039,93.245 96.132,93.245 v 0 c 53.093,0 96.132,-41.747 96.132,-93.245 v 0 c 0,-51.497 -43.039,-93.244 -96.132,-93.244 v 0 c -53.093,0 -96.132,41.747 -96.132,93.244"
         id="path326" />
    </clipPath>
  </defs>
  <g
     inkscape:label="Layer 1"
     inkscape:groupmode="layer"
     id="layer1">
    <g
       id="layer1-8"
       style="stroke:currentColor;stroke-width:4.99986732;stroke-dasharray:none;stroke-opacity:1"
       transform="matrix(0.24434121,0,0,0.25580342,-4.5834791,4.7505355)">
      <path
         style="fill:none;fill-opacity:1;stroke:currentColor;stroke-width:4.99986732;stroke-linejoin:round;stroke-dasharray:none;stroke-opacity:1"
         d="m 124.30733,20.574971 c 0,0 -5.19943,-5.060862 -12.42923,0.867576 0,0 -5.54275,5.519453 -7.22979,5.928432 -16.354159,-2.063091 -41.96305,-1.451377 -46.904195,0.22203 -4.192035,2.044895 -10.137232,6.322881 -10.373799,20.862657 0.613829,12.962121 1.844119,17.858337 10.982281,22.269277 0,0 0.252806,13.83323 2.228832,16.225751 2.81962,1.229065 11.105518,1.6081 13.310606,-0.05475 1.554406,-2.205088 2.592452,-12.986878 2.592452,-12.986878 0,0 1.882683,2.644631 9.236806,2.599717 6.89643,-0.04212 8.35521,-2.162918 8.35521,-2.162918 0,0 0.747642,10.916109 2.157452,13.157346 2.24124,1.373661 11.660145,1.765052 13.817075,0.07443 1.62671,-2.349683 2.42906,-15.012287 2.42906,-15.012287 0,0 3.55021,0.555616 8.96211,-4.488491 5.4632,-5.091923 6.5853,-9.548832 6.5853,-9.548832 l 6.91403,-0.07744 -0.0496,-14.303472 -7.59767,0.05263 c 0,0 -2.6252,-4.770819 -4.93292,-8.189158 -2.4082,-3.567165 -7.69779,-6.990661 -7.69779,-6.990661 1.62123,-2.972874 5.72914,-6.57113 9.64378,-8.444953 z"
         id="path4507"
         sodipodi:nodetypes="cscccccccsccccsccccsccc" />
    </g>
    <path
       style="fill:none;stroke:currentColor;stroke-width:1.25003;stroke-linecap:round;stroke-linejoin:round;stroke-dasharray:none;stroke-opacity:1"
       d="m 12.297596,8.7265065 c 0,0 0.6658,-3.1282639 3.589164,-3.1013281 2.853382,0.026291 3.435645,3.1013281 3.435645,3.1013281"
       id="path6883"
       sodipodi:nodetypes="csc" />
    <ellipse
       style="fill:currentColor;fill-opacity:1;stroke:none;stroke-width:1.33496;stroke-linecap:round;stroke-linejoin:round;stroke-dasharray:none;stroke-opacity:1"
       id="path6944"
       cx="22.737898"
       cy="16.792217"
       rx="0.95450002"
       ry="0.95464128" />
    <ellipse
       id="path7047"
       style="fill:currentColor;stroke:currentColor;stroke-width:0.0661475"
       cx="7.59554"
       cy="16.290859"
       rx="0.0062884889"
       ry="0.0065834862" />
    <path
       style="fill:none;stroke:currentColor;stroke-width:1.25003;stroke-linecap:round;stroke-linejoin:round;stroke-dasharray:none;stroke-opacity:1"
       d="m 6.9629857,16.611721 c 0,0 -3.1963081,0.498291 -3.3461086,-1.986751 -0.1400476,-2.323249 2.1906317,-2.355065 2.1906317,-2.355065"
       id="path7114"
       sodipodi:nodetypes="csc" />
  </g>
</svg>
