<?xml version="1.0" encoding="UTF-8"?>
<!-- Created with Inkscape (http://www.inkscape.org/) -->
<svg id="SVGRoot" width="32" height="32" version="1.1" viewBox="0 0 32 32" xmlns="http://www.w3.org/2000/svg">
 <g transform="matrix(.24434 0 0 .2558 -4.5835 4.7505)" stroke="currentColor" stroke-width="7.9998">
  <path d="m124.31 20.575s-5.1994-5.0609-12.429 0.86758c0 0-5.5428 5.5195-7.2298 5.9284-16.354-2.0631-41.963-1.4514-46.904 0.22203-4.192 2.0449-10.137 6.3229-10.374 20.863 0.61383 12.962 1.8441 17.858 10.982 22.269 0 0 0.25281 13.833 2.2288 16.226 2.8196 1.2291 11.106 1.6081 13.311-0.05475 1.5544-2.2051 2.5925-12.987 2.5925-12.987s1.8827 2.6446 9.2368 2.5997c6.8964-0.04212 8.3552-2.1629 8.3552-2.1629s0.74764 10.916 2.1575 13.157c2.2412 1.3737 11.66 1.7651 13.817 0.07443 1.6267-2.3497 2.4291-15.012 2.4291-15.012s3.5502 0.55562 8.9621-4.4885c5.4632-5.0919 6.5853-9.5488 6.5853-9.5488l6.914-0.07744-0.0496-14.303-7.5977 0.05263s-2.6252-4.7708-4.9329-8.1892c-2.4082-3.5672-7.6978-6.9907-7.6978-6.9907 1.6212-2.9729 5.7291-6.5711 9.6438-8.445z" fill="none" stroke="currentColor" stroke-linejoin="round" stroke-width="7.9998"/>
 </g>
 <path d="m12.298 8.7265s0.6658-3.1283 3.5892-3.1013c2.8534 0.026291 3.4356 3.1013 3.4356 3.1013" fill="none" stroke="currentColor" stroke-linecap="round" stroke-linejoin="round" stroke-width="2"/>
 <ellipse cx="22.765" cy="16.765" rx="1.2349" ry="1.235" fill="currentColor" stroke="currentColor" />
 <ellipse cx="7.5955" cy="16.291" rx=".0062885" ry=".0065835" fill="currentColor" stroke="currentColor" stroke-width=".066148"/>
 <path d="m6.963 16.612s-3.1963 0.49829-3.3461-1.9868c-0.14005-2.3232 2.1906-2.3551 2.1906-2.3551" fill="none" stroke="currentColor" stroke-linecap="round" stroke-linejoin="round" stroke-width="2"/>
</svg>
