<?xml version="1.0" encoding="UTF-8"?>
<!-- Created with Inkscape (http://www.inkscape.org/) -->
<svg id="SVGRoot" width="32" height="32" version="1.1" viewBox="0 0 32 32" xmlns="http://www.w3.org/2000/svg">
 <defs>
  <clipPath id="clipPath11164">
   <path d="m22.146 16.885a0.99193 0.99193 0 0 0-0.99219 0.99219v0.18359c-0.23758 0.03935-0.4646 0.03116-0.70703 0.12305-0.51242 0.19421-1.0842 0.59725-1.3203 1.2637-0.16481 0.46513-0.20671 0.97024-0.07227 1.4258 0.13444 0.45554 0.42429 0.81386 0.72852 1.0664 0.60846 0.5051 1.2964 0.72111 1.9238 0.94141 0.6274 0.2203 1.2011 0.43665 1.457 0.61133 0.12799 0.08734 0.16245 0.14514 0.16406 0.14844 0.0016 0.0033 0.01547-0.02547-0.0098 0.08398-0.05166 0.22407-0.05943 0.20398-0.24219 0.27344-0.18276 0.06946-0.55791 0.10368-0.96289 0.0625-0.80996-0.08236-1.6523-0.39844-1.6523-0.39844a0.99193 0.99193 0 0 0-1.2852 0.56445 0.99193 0.99193 0 0 0 0.56445 1.2852s0.79492 0.1874 1.4141 0.33984v0.15625a0.99193 0.99193 0 0 0 0.99222 0.99219 0.99193 0.99193 0 0 0 0.99219-0.99219v-0.0918c0.21873-0.03326 0.42026 0.02199 0.64258-0.0625 0.64668-0.24578 1.2804-0.86654 1.4688-1.6836 0.1087-0.47144 0.06316-0.98718-0.13867-1.4004-0.20183-0.41322-0.51494-0.7023-0.82812-0.91602-0.62636-0.42743-1.31-0.63029-1.918-0.84375-0.60792-0.21346-1.1318-0.44604-1.3145-0.59766-0.09132-0.07581-0.09318-0.09768-0.09375-0.09961-5.68e-4 -0.0019-0.0213-0.03081 0.03906-0.20117-0.0046 0.01295-0.02782-0.0052 0.1543-0.07422 0.18211-0.06902 0.51035-0.12266 0.84961-0.13281 0.67852-0.0203 1.3535 0.09961 1.3535 0.09961a0.99193 0.99193 0 0 0 1.1562-0.79492 0.99193 0.99193 0 0 0-0.79492-1.1562s-0.42546-0.02125-0.57617-0.04297v-0.13281a0.99193 0.99193 0 0 0-0.99219-0.99219z" color="currentColor000" display="none" fill="#fff" stroke-linecap="round" stroke-linejoin="round" style="-inkscape-stroke:none;paint-order:stroke markers fill"/>
   <path class="powerclip" d="m10.178 10.118h23.765v23.765h-23.765zm11.968 6.7671a0.99193 0.99193 0 0 0-0.99219 0.99219v0.18359c-0.23758 0.03935-0.4646 0.03116-0.70703 0.12305-0.51242 0.19421-1.0842 0.59725-1.3203 1.2637-0.16481 0.46513-0.20671 0.97024-0.07227 1.4258 0.13444 0.45554 0.42429 0.81386 0.72852 1.0664 0.60846 0.5051 1.2964 0.72111 1.9238 0.94141 0.6274 0.2203 1.2011 0.43665 1.457 0.61133 0.12799 0.08734 0.16245 0.14514 0.16406 0.14844 0.0016 0.0033 0.01547-0.02547-0.0098 0.08398-0.05166 0.22407-0.05943 0.20398-0.24219 0.27344-0.18276 0.06946-0.55791 0.10368-0.96289 0.0625-0.80996-0.08236-1.6523-0.39844-1.6523-0.39844a0.99193 0.99193 0 0 0-1.2852 0.56445 0.99193 0.99193 0 0 0 0.56445 1.2852s0.79492 0.1874 1.4141 0.33984v0.15625a0.99193 0.99193 0 0 0 0.99222 0.99219 0.99193 0.99193 0 0 0 0.99219-0.99219v-0.0918c0.21873-0.03326 0.42026 0.02199 0.64258-0.0625 0.64668-0.24578 1.2804-0.86654 1.4688-1.6836 0.1087-0.47144 0.06316-0.98718-0.13867-1.4004-0.20183-0.41322-0.51494-0.7023-0.82812-0.91602-0.62636-0.42743-1.31-0.63029-1.918-0.84375-0.60792-0.21346-1.1318-0.44604-1.3145-0.59766-0.09132-0.07581-0.09318-0.09768-0.09375-0.09961-5.68e-4 -0.0019-0.0213-0.03081 0.03906-0.20117-0.0046 0.01295-0.02782-0.0052 0.1543-0.07422 0.18211-0.06902 0.51035-0.12266 0.84961-0.13281 0.67852-0.0203 1.3535 0.09961 1.3535 0.09961a0.99193 0.99193 0 0 0 1.1562-0.79492 0.99193 0.99193 0 0 0-0.79492-1.1562s-0.42546-0.02125-0.57617-0.04297v-0.13281a0.99193 0.99193 0 0 0-0.99219-0.99219z" color="currentColor000" fill="#fff" stroke-linecap="round" stroke-linejoin="round" style="-inkscape-stroke:none;paint-order:stroke markers fill"/>
  </clipPath>
 </defs>
 <g stroke="currentColor" stroke-linecap="round" stroke-linejoin="round">
  <path d="m28.061 22a6 6 0 0 1-6 6 6 6 0 0 1-6-6 6 6 0 0 1 6-6 6 6 0 0 1 6 6z" clip-path="url(#clipPath11164)" stroke-width="1.7647" style="paint-order:stroke markers fill"/>
  <g fill="none" stroke-width="2">
   <path d="m22.272 5.6224 4.8734-1.1181-0.29116 4.9915m-22.854 3.5042 7-7 7 7 8-7" opacity=".93" style="paint-order:stroke markers fill"/>
   <path d="m6 28v-9" opacity=".93" style="paint-order:stroke markers fill"/>
   <path d="m11 28v-13" opacity=".93" style="paint-order:stroke markers fill"/>
  </g>
 </g>
</svg>
