<?xml version="1.0" encoding="UTF-8"?>
<!-- Created with Inkscape (http://www.inkscape.org/) -->
<svg id="SVGRoot" width="32" height="32" version="1.1" viewBox="0 0 32 32" xmlns="http://www.w3.org/2000/svg">
 <g stroke="currentColor" stroke-linecap="round" stroke-linejoin="round">
  <path d="m23 8.9825h1c1.108 0 2 0.77107 2 1.7289v15.56c0 0.95779-0.892 1.7289-2 1.7289h-16c-1.108 0-2-0.77107-2-1.7289v-15.56c0-0.95779 0.892-1.7289 2-1.7289h1" fill="none" stroke-width="1.965"/>
  <path d="m10 10.784 12-9.91e-4v-1.9565c0-1.8261-1.8261-1.8261-3-1.8261 0 0-1e-6 -3.2174-3-3.2174-3 0-3 3.2174-3 3.2174-1.3043 0-3 0-3 1.8261z" fill="none" stroke-width="1.965"/>
  <g>
   <path d="m15 16h7.5" stroke-width="1.965"/>
   <path d="m15 22h7.5" stroke-width="1.965"/>
   <path d="m9.25 15.95 1 1 2-3" fill="none" stroke-width="1.5"/>
   <path d="m9.25 21.95 1 1 2-3" fill="none" stroke-width="1.5"/>
  </g>
 </g>
</svg>
