<?xml version="1.0" encoding="UTF-8" standalone="no"?>
<svg
   version="1.1"
   viewBox="0 0 180 180"
   xml:space="preserve"
   id="svg8"
   sodipodi:docname="logo.svg"
   inkscape:version="1.4 (86a8ad7, 2024-10-11)"
   xmlns:inkscape="http://www.inkscape.org/namespaces/inkscape"
   xmlns:sodipodi="http://sodipodi.sourceforge.net/DTD/sodipodi-0.dtd"
   xmlns="http://www.w3.org/2000/svg"
   xmlns:svg="http://www.w3.org/2000/svg"><sodipodi:namedview
   id="namedview8"
   pagecolor="#ffffff"
   bordercolor="#000000"
   borderopacity="0.25"
   inkscape:showpageshadow="2"
   inkscape:pageopacity="0.0"
   inkscape:pagecheckerboard="0"
   inkscape:deskcolor="#d1d1d1"
   inkscape:zoom="0.90990894"
   inkscape:cx="-35.168354"
   inkscape:cy="229.14381"
   inkscape:window-width="3840"
   inkscape:window-height="2071"
   inkscape:window-x="-9"
   inkscape:window-y="-9"
   inkscape:window-maximized="1"
   inkscape:current-layer="svg8" />
<defs
   id="defs3"><linearGradient
   id="a"
   x2="1"
   gradientTransform="matrix(95.839,78.953,-80.474,94.028,37.067,42.212)"
   gradientUnits="userSpaceOnUse"><stop
     stop-color="#ff9696"
     offset="0"
     id="stop1" /><stop
     stop-color="#e10000"
     offset=".642"
     id="stop2" /><stop
     stop-color="#8f0000"
     offset="1"
     id="stop3" /></linearGradient><clipPath
   id="b"><path
     d="m0 600h800v-600h-800z"
     id="path3" /></clipPath>


</defs>

<g
   transform="matrix(1.2592479,0,0,1.2592969,-18.957077,-14.272121)"
   id="g8"><path
     d="m 110.02,51.972 c -14.039,-9.6848 -33.936,-6.7566 -48.97,0 -10.988,-14.424 14.039,-21.365 4.6538,-34.271 -19.676,1.2689 -25.867,29.607 -16.36,45.658 -9.1749,6.9952 -26.419,6.0733 -27.967,20.606 2.9625,11.279 17.797,5.043 27.967,4.5767 1.8571,22.558 7.2405,41.646 13.928,59.432 h 46.538 c 8.3017,-17.027 9.6834,-40.778 16.25,-59.432 9.1639,1.8654 25.756,6.1818 25.646,-6.8542 -3.5484,-12.472 -21.666,-10.78 -27.967,-20.606 10.325,-14.749 2.1335,-42.622 -16.36,-43.381 -10.026,11.93 18.571,23.534 2.3324,34.271"
     fill="url(#a)"
     stroke="#000000"
     stroke-width="4.6396"
     style="fill:url(#a);paint-order:stroke fill markers"
     id="path4" /><g
     transform="matrix(1.1054,0,0,-1.0845,-355.36,422.88)"
     clip-path="url(#b)"
     style="paint-order:stroke fill markers"
     id="g7"><g
       transform="translate(383,262)"
       style="paint-order:stroke fill markers"
       id="g5"><path
         d="M 0,0 C 0,-1.74 1.42,-3.16 3.16,-3.16 4.9,-3.16 6.32,-1.74 6.32,0 6.32,1.74 4.9,3.16 3.16,3.16 1.42,3.16 0,1.74 0,0"
         fill-rule="evenodd"
         style="paint-order:stroke fill markers"
         id="path5" /></g><g
       transform="translate(411,262)"
       style="paint-order:stroke fill markers"
       id="g6"><path
         d="m 0,0 c 0,-1.68 1.36,-3.04 3.04,-3.04 1.68,0 3.05,1.36 3.05,3.04 0,1.68 -1.36,3.05 -3.05,3.05 C 1.36,3.05 0,1.69 0,0"
         fill-rule="evenodd"
         style="paint-order:stroke fill markers"
         id="path6" /></g><path
       d="m 422,323 h -46.6 v 3.8 H 422 Z"
       fill-rule="evenodd"
       style="paint-order:stroke fill markers"
       id="path7" /></g></g></svg>
