<?xml version="1.0" encoding="UTF-8" standalone="no"?>
<svg
   version="1.1"
   viewBox="0 0 180 180"
   xml:space="preserve"
   id="svg9"
   sodipodi:docname="logo-bg.svg"
   inkscape:version="1.4 (86a8ad7, 2024-10-11)"
   inkscape:export-filename="logo.512.png"
   inkscape:export-xdpi="273.06668"
   inkscape:export-ydpi="273.06668"
   xmlns:inkscape="http://www.inkscape.org/namespaces/inkscape"
   xmlns:sodipodi="http://sodipodi.sourceforge.net/DTD/sodipodi-0.dtd"
   xmlns:xlink="http://www.w3.org/1999/xlink"
   xmlns="http://www.w3.org/2000/svg"
   xmlns:svg="http://www.w3.org/2000/svg"><sodipodi:namedview
   id="namedview9"
   pagecolor="#ffffff"
   bordercolor="#000000"
   borderopacity="0.25"
   inkscape:showpageshadow="2"
   inkscape:pageopacity="0.0"
   inkscape:pagecheckerboard="0"
   inkscape:deskcolor="#d1d1d1"
   inkscape:zoom="7.2792715"
   inkscape:cx="91.21792"
   inkscape:cy="61.475932"
   inkscape:window-width="3840"
   inkscape:window-height="2071"
   inkscape:window-x="3831"
   inkscape:window-y="-9"
   inkscape:window-maximized="1"
   inkscape:current-layer="svg9" />
<defs
   id="defs3"><linearGradient
     id="linearGradient9"
     inkscape:collect="always"><stop
       style="stop-color:#151515;stop-opacity:1;"
       offset="0"
       id="stop9" /><stop
       style="stop-color:#313131;stop-opacity:1;"
       offset="1"
       id="stop10" /></linearGradient><clipPath
     id="c"><path
       d="m0 600h800v-600h-800z"
       id="path1" /></clipPath><linearGradient
     id="a"
     x2="1"
     gradientTransform="matrix(86.7 -72.8 -72.8 -86.7 355 351)"
     gradientUnits="userSpaceOnUse"><stop
       stop-color="#ff9696"
       offset="0"
       id="stop1" /><stop
       stop-color="#e10000"
       offset=".642"
       id="stop2" /><stop
       stop-color="#8f0000"
       offset="1"
       id="stop3" /></linearGradient><clipPath
     id="b"><path
       d="m0 600h800v-600h-800z"
       id="path3" /></clipPath><linearGradient
     inkscape:collect="always"
     xlink:href="#linearGradient9"
     id="linearGradient10"
     x1="89.999992"
     y1="179.99997"
     x2="89.999992"
     y2="1.5990005e-05"
     gradientUnits="userSpaceOnUse" /></defs>
<rect
   x="0"
   y="0"
   width="180"
   height="180"
   fill="#000"
   id="rect3"
   style="fill:url(#linearGradient10)" />
<g
   transform="matrix(1.19 0 0 -1.17 -384 455)"
   id="g9">

<path
   d="m0 0c-8.3-6.45-23.9-5.6-25.3-19 2.68-10.4 16.1-4.65 25.3-4.22 1.68-20.8 6.56-38.4 12.6-54.8h42.1c7.51 15.7 8.76 37.6 14.7 54.8 8.29-1.72 23.3-5.71 23.2 6.32-3.21 11.5-19.6 9.94-25.3 19 9.34 13.6 1.93 39.3-14.8 40-9.07-11 16.8-21.7 2.11-31.6-12.7 8.93-30.7 6.23-44.3 0-9.94 13.3 12.7 19.7 4.21 31.6-17.8-1.17-23.4-27.3-14.8-42.1"
   fill="#FFF0"
   fill-rule="evenodd"
   id="path4"
   transform="translate(366,331)" /><path
   d="m421 342c-12.7 8.93-30.7 6.23-44.3 0-9.94 13.3 12.7 19.7 4.21 31.6-17.8-1.17-23.4-27.3-14.8-42.1-8.3-6.45-23.9-5.6-25.3-19 2.68-10.4 16.1-4.65 25.3-4.22 1.68-20.8 6.55-38.4 12.6-54.8h42.1c7.51 15.7 8.76 37.6 14.7 54.8 8.29-1.72 23.3-5.7 23.2 6.32-3.21 11.5-19.6 9.94-25.3 19 9.34 13.6 1.93 39.3-14.8 40-9.07-11 16.8-21.7 2.11-31.6"
   fill="url(#a)"
   id="path5" />
<g
   clip-path="url(#b)"
   id="g8"><g
     transform="translate(383 262)"
     id="g6"><path
       d="m0 0c0-1.74 1.42-3.16 3.16-3.16s3.16 1.42 3.16 3.16c0 1.74-1.42 3.16-3.16 3.16s-3.16-1.42-3.16-3.16"
       fill="#000000"
       fill-rule="evenodd"
       id="path6" /></g><g
     transform="translate(411 262)"
     id="g7"><path
       d="m0 0c0-1.68 1.36-3.04 3.04-3.04 1.68 0 3.05 1.36 3.05 3.04 0 1.68-1.36 3.05-3.05 3.05-1.68 0-3.04-1.36-3.04-3.05"
       fill="#000000"
       fill-rule="evenodd"
       id="path7" /></g><path
     d="m422 323h-46.6v3.8h46.6z"
     fill="#000000"
     fill-rule="evenodd"
     id="path8" /></g></g></svg>
