<?xml version="1.0" encoding="UTF-8"?>
<svg version="1.1" viewBox="0 0 180 180" xml:space="preserve" xmlns="http://www.w3.org/2000/svg">
<defs><linearGradient id="a" x2="1" gradientTransform="matrix(95.839 78.953 -80.474 94.028 37.067 42.212)" gradientUnits="userSpaceOnUse"><stop stop-color="#ff9696" offset="0"/><stop stop-color="#e10000" offset=".642"/><stop stop-color="#8f0000" offset="1"/></linearGradient><clipPath id="b"><path d="m0 600h800v-600h-800z"/></clipPath>


</defs>

<g transform="translate(3.4701 7.201)"><path d="m110.02 51.972c-14.039-9.6848-33.936-6.7566-48.97 0-10.988-14.424 14.039-21.365 4.6538-34.271-19.676 1.2689-25.867 29.607-16.36 45.658-9.1749 6.9952-26.419 6.0733-27.967 20.606 2.9625 11.279 17.797 5.043 27.967 4.5767 1.8571 22.558 7.2405 41.646 13.928 59.432h46.538c8.3017-17.027 9.6834-40.778 16.25-59.432 9.1639 1.8654 25.756 6.1818 25.646-6.8542-3.5484-12.472-21.666-10.78-27.967-20.606 10.325-14.749 2.1335-42.622-16.36-43.381-10.026 11.93 18.571 23.534 2.3324 34.271" fill="url(#a)" stroke="#000" stroke-width="4.6396" style="paint-order:stroke fill markers"/><g transform="matrix(1.1054 0 0 -1.0845 -355.36 422.88)" clip-path="url(#b)" style="paint-order:stroke fill markers"><g transform="translate(383,262)" style="paint-order:stroke fill markers"><path d="m0 0c0-1.74 1.42-3.16 3.16-3.16s3.16 1.42 3.16 3.16-1.42 3.16-3.16 3.16-3.16-1.42-3.16-3.16" fill-rule="evenodd" style="paint-order:stroke fill markers"/></g><g transform="translate(411,262)" style="paint-order:stroke fill markers"><path d="m0 0c0-1.68 1.36-3.04 3.04-3.04s3.05 1.36 3.05 3.04-1.36 3.05-3.05 3.05c-1.68 0-3.04-1.36-3.04-3.05" fill-rule="evenodd" style="paint-order:stroke fill markers"/></g><path d="m422 323h-46.6v3.8h46.6z" fill-rule="evenodd" style="paint-order:stroke fill markers"/></g></g></svg>
